<?xml version="1.0" standalone="no"?>
<!DOCTYPE svg PUBLIC "-//W3C//DTD SVG 20010904//EN"
 "http://www.w3.org/TR/2001/REC-SVG-20010904/DTD/svg10.dtd">
<svg version="1.0" xmlns="http://www.w3.org/2000/svg"
 width="70.000000pt" height="70.000000pt" viewBox="0 0 70.000000 70.000000"
 preserveAspectRatio="xMidYMid meet">
<metadata>
Created by potrace 1.11, written by Peter Selinger 2001-2013
</metadata>
<g transform="translate(0.000000,70.000000) scale(0.100000,-0.100000)"
fill="#000000" stroke="none">
<path d="M393 674 c-24 -9 -43 -20 -43 -26 0 -5 6 -7 13 -4 55 23 87 28 113
18 27 -10 26 -10 -22 -11 -27 -1 -59 -7 -70 -15 -18 -14 -18 -15 11 -26 17 -6
52 -22 79 -37 40 -21 56 -25 99 -20 67 8 77 20 46 53 -62 66 -154 94 -226 68z"/>
<path d="M316 614 c-6 -17 5 -28 66 -66 38 -24 35 -11 -11 40 -43 47 -46 49
-55 26z"/>
<path d="M178 555 c-63 -23 -87 -45 -118 -109 -75 -155 -25 -286 154 -406 47
-32 50 -32 135 -28 100 5 159 30 228 97 54 53 83 109 90 176 13 120 -55 198
-181 210 -31 3 -56 4 -56 3 0 -2 7 -25 15 -52 29 -94 11 -204 -40 -246 -16
-13 -16 -11 2 25 19 38 26 61 37 129 7 40 -21 116 -57 153 -58 61 -129 77
-209 48z"/>
</g>
</svg>
